<?xml version="1.0" standalone="no"?>
<svg viewBox="0 0 200 200" xmlns="http://www.w3.org/2000/svg">
  <path fill="#FF0066" d="M26.5,-43.7C39.5,-38.3,58.7,-41.7,66.7,-35.8C74.8,-30,71.6,-15,68.9,-1.5C66.3,12,64.2,23.9,55.5,28.6C46.8,33.2,31.5,30.6,21.1,38.3C10.7,46,5.4,64.1,-0.1,64.2C-5.5,64.3,-11,46.5,-21,38.5C-30.9,30.6,-45.3,32.5,-56.6,27.8C-67.9,23,-76,11.5,-70.6,3.1C-65.2,-5.2,-46.1,-10.4,-38.7,-21.9C-31.3,-33.4,-35.5,-51.1,-31,-61.4C-26.5,-71.6,-13.3,-74.3,-3.3,-68.7C6.7,-63,13.5,-49,26.5,-43.7Z" transform="translate(100 100)" />
</svg>
